<?xml version="1.0" encoding="utf-8"?>
<!-- Svg Vector Icons : http://www.onlinewebfonts.com/icon -->
<!DOCTYPE svg PUBLIC "-//W3C//DTD SVG 1.1//EN" "http://www.w3.org/Graphics/SVG/1.1/DTD/svg11.dtd">
<svg version="1.1" xmlns="http://www.w3.org/2000/svg" xmlns:xlink="http://www.w3.org/1999/xlink" x="0px" y="0px" viewBox="0 0 1000 1000" enable-background="new 0 0 1000 1000" xml:space="preserve">
<metadata> Svg Vector Icons : http://www.onlinewebfonts.com/icon </metadata>
<g><g transform="translate(0.000000,511.000000) scale(0.100000,-0.100000)"><path d="M5192.2,4802.1l-5.9-207.9l-143.2-37.3c-447.2-113.8-747.4-400.2-855.2-816c-35.3-137.3-41.2-478.6-9.8-614c66.7-292.3,276.6-539.4,586.5-692.4c102-49,241.3-105.9,309.9-123.6l121.6-33.3v-606.1v-606.1l-60.8,35.3c-164.8,96.1-270.7,302.1-321.7,619.8l-11.8,72.6h-374.7h-372.7l13.7-131.4c7.8-74.5,33.3-213.8,58.8-311.9c98.1-390.4,298.2-653.2,606.1-802.3c98.1-47.1,241.3-98.1,315.8-113.8l137.3-27.5l5.9-207.9l5.9-209.9H5461h262.9l5.9,207.9l5.9,207.9l141.2,37.3c574.7,145.2,927.8,623.8,927.8,1251.5c0,614-290.3,965.1-935.7,1131.8l-143.2,35.3v525.7c0,288.3,7.9,525.7,17.7,525.7c31.4,0,115.7-94.2,156.9-170.7c21.6-43.1,51-137.3,62.8-209.9l25.5-129.5l372.7,3.9l374.7,5.9l-7.9,78.5c-3.9,43.2-23.5,145.2-43.1,225.6c-111.8,443.3-394.3,737.5-806.2,841.5l-143.2,37.3l-5.9,207.9l-5.9,207.9H5461h-262.9L5192.2,4802.1z M5196.2,3460.4v-472.7l-54.9,29.4c-80.4,41.2-192.2,170.7-219.7,257c-13.7,41.2-19.6,133.4-15.7,211.8c9.8,190.3,68.7,311.9,188.3,388.4c49,31.4,92.2,56.9,96.1,56.9C5194.2,3931.1,5196.2,3719.3,5196.2,3460.4z M5967,1989.2c72.6-84.3,98.1-198.1,88.3-392.3c-13.7-253-94.1-410-255-492.4l-74.5-37.3v539.4v539.4l96.1-47.1C5872.9,2071.6,5939.6,2022.6,5967,1989.2z"/><path d="M508-1510.2v-1481l84.3-9.8c45.1-5.9,523.7-19.6,1063.2-31.4c539.4-11.8,1147.5-25.5,1349.5-33.3l368.8-11.8l1318.2-867c1098.5-723.8,1322.1-865,1347.6-843.5c15.7,13.7,800.3,665,1741.8,1449.6L9492-1914.3v292.3v290.3l-225.6,35.3c-123.6,17.7-237.3,29.4-253,23.5c-15.7-5.9-686.5-417.8-1490.8-914.1c-802.3-498.2-1473.1-910.2-1490.8-916c-19.6-7.9-408,221.7-1074.9,629.6c-574.7,353.1-1053.3,651.3-1065.1,661.1c-25.5,21.6-72.6,43.2,1176.9-504.1c920-402.1,1065.1-459,1098.5-439.4c21.6,13.7,125.5,94.2,233.4,180.5l192.2,156.9l-947.4,931.7C5123.6-972.7,4576.3-435.3,4431.2-292.1L4164.4-31.2H2336.2H508V-1510.2z"/><path d="M6212.2-723.6c-278.5-162.8-506.1-302.1-506.1-308c0-7.9,74.5-64.7,166.7-127.5l164.8-113.8l551.2,360.9c302.1,198.1,549.2,366.8,549.2,372.7c0,11.8-400.2,119.7-415.8,113.8C6718.3-427.4,6488.8-560.8,6212.2-723.6z"/><path d="M6761.5-1015.9c-325.6-223.6-596.3-415.9-600.2-423.7c-9.8-29.4,274.6-319.7,300.1-309.9c58.8,21.6,1426.1,1039.6,1406.4,1047.5c-11.8,3.9-131.4,25.5-266.8,51l-245.2,43.1L6761.5-1015.9z"/><path d="M7330.3-1370.9c-396.2-282.5-719.9-521.8-719.9-533.5c0-9.8,45.1-70.6,102-133.4l102-115.7l996.5,504.1c549.2,278.5,994.5,508.1,990.6,512c-11.8,9.8-723.8,282.5-739.5,282.5C8056.1-855,7726.6-1086.5,7330.3-1370.9z"/></g></g>
</svg>