<?xml version="1.0" encoding="UTF-8"?>
<!-- Generator: Adobe Illustrator 18.1.1, SVG Export Plug-In . SVG Version: 6.00 Build 0)  -->
<svg version="1.0" id="Layer_2" xmlns="http://www.w3.org/2000/svg" xmlns:xlink="http://www.w3.org/1999/xlink" x="0px" y="0px" viewBox="0 0 192.3 234.3" enable-background="new 0 0 192.3 234.3" xml:space="preserve">
<circle fill="#F26631" stroke="#FFFFFF" stroke-width="4" stroke-miterlimit="10" cx="135.2" cy="44.6" r="24.9"/>
<g>
	<g>
		<path fill="#7C2B83" d="M46.2,232.3c-2,0-3.8-0.9-5.1-2.4c-1.3-1.5-1.8-3.5-1.4-5.4l3.3-17.1c-2.8-1.6-9.7-6.1-17.2-14.5    c-0.5-0.5-0.6-1.2-0.4-1.9c0.2-0.7,0.7-1.2,1.3-1.4c3.2-1,7.2-2.8,10.1-5.1c-2.2,1.3-4.9,2.3-7.9,2.3c-2.7,0-5.3-0.8-7.9-2.3    c-0.3-0.2-0.5-0.4-0.6-0.6c-1.6-2.4-2-3.7-2.7-6.2c-3.5-1.4-8.2-4-10.8-5.5c-2-1.1-3.4-3.1-3.8-5.3c-1.2-5.5-1.4-11.6-0.8-20.9    c0.2-3.3,2.3-6,5.4-7.1c1.3-0.5,2.8-0.9,4.2-1.3c2.1-0.6,4.3-1.3,6-2c0-7.5,0.8-15.6,18.6-31.1c0.4-0.3,0.8-0.5,1.3-0.5    c0.1,0,0.3,0,0.4,0c0.6,0.1,1.1,0.5,1.4,1.1c0.6,1.1,1.1,2.1,1.5,3.1c0,0.1,0.1,0.1,0.1,0.2L29.4,82.8c-1-2.2-0.8-4.6,0.4-6.6    c1.3-2,3.5-3.2,5.8-3.2c0.5,0,1,0.1,1.5,0.2c9.6,2,23,6.5,32.9,16.3c2.7-0.4,10.2-1.4,19.9-1.4c19.9,0,55.8,4.3,72.3,33.1    c3.1,5.5,5.5,11,7.1,16.5c1.5-2.8,4.2-4.1,6.5-4.3c0.2,0,0.5,0,0.7,0c3.9,0,8.3,2.7,9.4,8c0.5,2.6,0,5.1-1.7,7.5    c1.6,0.2,3.1,0.2,4.3,0.2c1.1,0,2,0.9,2,2v3.2c0,1.1-0.9,2-2,2c-4.5,0-8.3-0.5-11.4-1.6c-1.9,1.1-3.9,1.9-5.4,2.6    c-0.8,15.8-8.1,30.8-21.7,44.7c0.8,5.3,2.7,15.5,3.8,21.3c0.4,1.9-0.1,3.9-1.4,5.4c-1.3,1.5-3.1,2.4-5.1,2.4l-0.2,0l-25.2-0.8    c-6-0.2-11.1-4.4-12.6-10.2l-0.2-0.7c-3.1,0.4-9.6,1.1-16.5,1.1c-2.8,0-5.4-0.1-7.7-0.4l0,0.1c-1.6,5.2-6,8.9-11.4,9.4l-26.4,2.8    C46.6,232.3,46.4,232.3,46.2,232.3z M176.3,140.5c-1.1,0.1-1.2,1.9-1.2,2.7c0,1.2,0.3,2,1,2.7c0.1,0.1,0.3,0.3,0.5,0.4    c1.2-1,2.5-2.3,2.3-3.6c-0.3-1.6-1.6-2.3-2.4-2.3C176.4,140.5,176.3,140.5,176.3,140.5z M39.1,131.1c-3.2,0-5.8,2.6-5.8,5.8    s2.6,5.8,5.8,5.8s5.8-2.6,5.8-5.8S42.3,131.1,39.1,131.1z"/>
	</g>
	<g>
		<path fill="#FFFFFF" d="M35.6,75c0.3,0,0.7,0,1.1,0.1c9.7,2,23,6.5,32.6,16.5c2.4-0.4,10.3-1.5,20.6-1.5c22,0,55.1,5,70.5,32.1    c6.2,10.9,8.9,21,9.2,30.2c1.3-0.5,2.6-1.1,3.9-1.8c-0.4-0.3-0.8-0.7-1.2-1c-1.7-1.8-2.5-3.9-2.4-6.5c0.2-5.3,3.2-7.4,6-7.7    c0.2,0,0.4,0,0.5,0c3.1,0,6.6,2.3,7.5,6.4c0.7,3.4-1.1,6.1-3.8,8.4c2.9,0.7,6.1,0.9,8.3,0.9v3.2c-3.6,0-8-0.4-11.6-1.8    c-2.4,1.4-5,2.5-7.2,3.4c-0.6,22.3-14.8,38.2-21.9,45.3c0.7,4.9,2.7,15.7,3.9,22.4c0.5,2.8-1.6,5.4-4.5,5.4c-0.1,0-0.1,0-0.2,0    l-25.2-0.8c-5.1-0.2-9.5-3.7-10.7-8.7l-0.6-2.4c0,0-8.8,1.3-18,1.3c-3.1,0-6.2-0.1-9.1-0.5c-0.2,0.6-0.4,1.2-0.5,1.7    c-1.3,4.4-5.1,7.5-9.7,8l-26.4,2.8c-0.2,0-0.3,0-0.5,0c-2.8,0-5-2.6-4.5-5.4l3.6-18.5c0,0-8.4-4.2-17.9-14.8    c6.1-1.8,17.2-7.4,15-14.8c-2.7,3.7-7.5,8.1-13.5,8.1c-2.2,0-4.5-0.6-6.9-2c-1.6-2.4-1.8-3.4-2.6-6.6c-3.2-1.2-8.4-3.9-11.5-5.7    c-1.5-0.9-2.5-2.3-2.9-4c-1.1-5.4-1.3-11.3-0.7-20.4c0.2-2.4,1.8-4.5,4.1-5.3c3.7-1.3,8.5-2.4,11.5-3.9c0-7.7-0.3-15,17.9-30.9    c2.9,5.8,4.4,9.5,6.7,11.7c1.3,1.2,3.6,1.8,5.7,1.8c1.1,0,2.2-0.2,3-0.5c0,0,19-7.4,17.8-7.4c-0.2,0-0.7,0.1-1.8,0.5    c-8.7,2.6-17.1,4.2-17.1,4.2c-0.5,0.1-0.9,0.2-1.4,0.2c-2.2,0-4.3-1.3-5.2-3.3L31.2,82C29.6,78.6,32.2,75,35.6,75 M85.1,103.4    c0.1,0,0.2,0,0.2,0c1.6-0.2,5.5-0.7,10.7-0.7c10.2,0,25.2,1.9,37,11.2c0.3,0.2,0.6,0.3,1,0.3c0.5,0,0.9-0.2,1.2-0.6    c0.5-0.7,0.4-1.7-0.3-2.2c-12.5-9.9-28.3-11.9-39-11.9c-5.3,0-9.4,0.5-11.1,0.7c-0.9,0.1-1.5,0.9-1.3,1.8    C83.7,102.9,84.3,103.4,85.1,103.4 M39.1,144.6c4.3,0,7.8-3.5,7.8-7.8c0-4.3-3.5-7.8-7.8-7.8c-4.3,0-7.8,3.5-7.8,7.8    C31.3,141.1,34.8,144.6,39.1,144.6 M176.5,148.7c2.7-1.8,4.7-4,4.2-6.4c-0.5-2.5-2.5-3.9-4.3-3.9c-0.1,0-0.2,0-0.3,0    c-1.9,0.2-3,1.8-3.1,4.6c-0.1,1.7,0.5,3.1,1.6,4.2C175.1,147.9,175.8,148.3,176.5,148.7 M35.6,71C35.6,71,35.6,71,35.6,71    c-3.1,0-5.9,1.5-7.5,4.1c-1.6,2.6-1.9,5.8-0.6,8.5l8.7,18.8c-0.4,0.2-0.7,0.4-1,0.6c-16.5,14.3-19,22.4-19.3,31.2    c-1.4,0.5-3,1-4.6,1.5c-1.4,0.4-2.9,0.9-4.2,1.3c-3.8,1.3-6.5,4.8-6.8,8.8c-0.6,9.5-0.4,15.8,0.8,21.5c0.6,2.8,2.3,5.2,4.8,6.6    c2.8,1.6,6.9,3.8,10.1,5.2c0.6,2.1,1.2,3.6,2.7,5.9c0.3,0.5,0.8,0.9,1.3,1.2c1.6,0.9,3.3,1.6,4.9,2.1c-0.7,0.5-1.2,1.3-1.5,2.1    c-0.4,1.3,0,2.7,0.9,3.7c6.8,7.5,13,12,16.5,14.1l-3,15.7c-0.5,2.5,0.2,5.1,1.8,7.1c1.6,2,4,3.1,6.6,3.1c0.3,0,0.6,0,0.9,0    l26.4-2.8c5.7-0.6,10.5-4.2,12.6-9.4c2,0.2,4.1,0.2,6.3,0.2c5.9,0,11.5-0.5,15-0.9c2,6.1,7.6,10.5,14.1,10.7l25.2,0.8    c0.1,0,0.2,0,0.3,0c2.6,0,5-1.1,6.6-3.1c1.6-2,2.3-4.5,1.8-7.1c-1-5.5-2.8-14.8-3.6-20.3c13.2-13.7,20.4-28.5,21.5-44    c1.2-0.5,2.4-1.1,3.7-1.8c3.1,1,6.9,1.4,11.2,1.4c2.2,0,4-1.8,4-4V151c0-2.2-1.8-4-4-4c-0.3,0-0.7,0-1.1,0    c0.9-2.3,0.8-4.4,0.5-6.1c-1.3-6.3-6.7-9.6-11.4-9.6c-0.3,0-0.6,0-0.9,0c-2.3,0.2-4.1,1-5.5,2.2c-1.5-4.5-3.6-8.9-6.1-13.4    c-7.4-12.9-19.1-22.4-35-28c-11.3-4.1-24.5-6.1-39-6.1c-8.8,0-15.8,0.8-19.2,1.3c-10.2-9.7-23.5-14.2-33.2-16.2    C36.9,71,36.3,71,35.6,71L35.6,71L35.6,71z M39.1,140.6c-2.1,0-3.8-1.7-3.8-3.8c0-2.1,1.7-3.8,3.8-3.8s3.8,1.7,3.8,3.8    C42.8,138.9,41.2,140.6,39.1,140.6L39.1,140.6z"/>
	</g>
</g>
<g>
	<path fill="#7C2B83" d="M40,142.1c-3.2,0-5.8-2.6-5.8-5.8s2.6-5.8,5.8-5.8c0.2,0,0.4,0,0.6,0c0.5,0.1,1,0.3,1.4,0.8   c0.2,0.3,0.4,0.7,0.5,1.1c0.1,0,0.2-0.1,0.4-0.1c0.1,0,0.3,0,0.4,0c0.7,0,1.3,0.3,1.7,0.9c0.6,0.9,0.9,2,0.9,3.2   C45.8,139.5,43.2,142.1,40,142.1z"/>
	<path fill="#FFFFFF" d="M40,132.4c0.2,0,0.3,0,0.4,0l-0.4,3.8c0,0,1.3-1.7,3.2-2.1c0.4,0.6,0.6,1.3,0.6,2.1c0,2.1-1.7,3.8-3.8,3.8   s-3.8-1.7-3.8-3.8C36.2,134.1,37.9,132.4,40,132.4 M40,128.4c-4.3,0-7.8,3.5-7.8,7.8c0,4.3,3.5,7.8,7.8,7.8s7.8-3.5,7.8-7.8   c0-1.5-0.4-3-1.3-4.2c-0.6-1-1.7-1.6-2.8-1.8c-0.6-0.9-1.6-1.6-2.8-1.7C40.7,128.5,40.4,128.4,40,128.4L40,128.4z"/>
</g>
<circle fill="#F26631" stroke="#FFFFFF" stroke-width="4" stroke-miterlimit="10" cx="111.2" cy="84.2" r="24.9"/>
<path fill="#7C2B83" d="M125.3,135.6c0,0,8-21.5,7.7-21.7c-17.7-14.1-42.8-11.2-47.6-10.5l1.2,26.2L125.3,135.6z"/>
<circle fill="#F26631" stroke="#FFFFFF" stroke-width="4" stroke-miterlimit="10" cx="91.1" cy="26.9" r="24.9"/>
<g>
	<path fill="#FFFFFF" d="M135.2,113.7c-0.3,0.4-0.8,0.6-1.2,0.6c-0.3,0-0.7-0.1-1-0.3c-17.7-14.1-42.8-11.2-47.6-10.5   c-0.9,0.1-1.7-0.5-1.8-1.3c-0.1-0.9,0.5-1.7,1.3-1.8c5.1-0.7,31.3-3.7,50,11.1C135.6,112,135.7,113,135.2,113.7z"/>
</g>
<head xmlns=""/></svg>